<svg width="36" height="36" viewBox="0 0 36 36" fill="none" xmlns="http://www.w3.org/2000/svg">
<circle cx="13.5" cy="13.5" r="6" fill="#00F6FF"/>
<path fill-rule="evenodd" clip-rule="evenodd" d="M21.6598 27.6861C21.7827 28.1533 22.1917 28.5 22.6748 28.5H25.8673C26.4688 28.5 26.9219 27.9745 26.7544 27.3968C26.2519 25.6641 24.8125 22.5 21.0001 22.5C20.7407 22.5 20.4924 22.5146 20.2546 22.5425C19.4955 22.6313 19.3708 23.5713 19.8683 24.1514C19.9292 24.2223 19.9884 24.2941 20.046 24.3665C20.9149 25.4587 21.394 26.6757 21.6598 27.6861ZM20.5069 27.321C20.7094 27.9193 20.2326 28.5 19.601 28.5H16.1328C15.5313 28.5 15.0786 27.9729 15.2462 27.3952C15.5215 26.4462 16.0778 25.0686 17.1507 24.0164C17.4467 23.7261 17.9091 23.7045 18.2346 23.9613C19.4435 24.9153 20.124 26.1892 20.5069 27.321Z" fill="#00F6FF"/>
<path d="M13.5 22.5C19.2891 22.5 20.6097 26.9685 20.911 29.0072C20.9917 29.5536 20.5523 30 20 30H7C6.44772 30 6.0083 29.5536 6.08903 29.0072C6.39027 26.9685 7.71086 22.5 13.5 22.5Z" fill="#00F6FF"/>
<path fill-rule="evenodd" clip-rule="evenodd" d="M18.2969 18.598C19.6532 17.3214 20.5 15.5096 20.5 13.5C20.5 12.4804 20.282 11.5117 19.8901 10.6379C20.2451 10.5479 20.617 10.5 21 10.5C23.4853 10.5 25.5 12.5147 25.5 15C25.5 17.4853 23.4853 19.5 21 19.5C19.9856 19.5 19.0495 19.1643 18.2969 18.598ZM17.5679 17.9105C18.7559 16.8143 19.5 15.244 19.5 13.5C19.5 12.6046 19.3039 11.755 18.9522 10.9919C17.4964 11.7371 16.5 13.2522 16.5 15C16.5 16.1099 16.9018 17.1259 17.5679 17.9105Z" fill="#00F6FF"/>
<path d="M19 3V7" stroke="#00F6FF" stroke-width="2" stroke-linecap="round"/>
<path d="M21 5L17 5" stroke="#00F6FF" stroke-width="2" stroke-linecap="round"/>
</svg>
