<svg version="1.1" id="Layer_1" xmlns="http://www.w3.org/2000/svg" xmlns:xlink="http://www.w3.org/1999/xlink" x="0px" y="0px"
	 width="100%" viewBox="0 0 1335 1057" enable-background="new 0 0 1335 1057" xml:space="preserve">
<path fill="#000000" opacity="1.000000" stroke="none" 
	d="
M804.000000,1058.000000 
	C536.000000,1058.000000 268.500000,1058.000000 1.000000,1058.000000 
	C1.000000,705.666687 1.000000,353.333344 1.000000,1.000000 
	C446.000000,1.000000 891.000000,1.000000 1336.000000,1.000000 
	C1336.000000,353.333344 1336.000000,705.666687 1336.000000,1058.000000 
	C1158.833374,1058.000000 981.666687,1058.000000 804.000000,1058.000000 
M391.024536,476.500000 
	C390.512146,463.462006 392.093384,450.428955 387.486450,437.534363 
	C377.439270,409.412781 351.735352,393.334900 324.115509,393.279602 
	C311.905914,393.255157 300.475861,397.197266 289.934418,403.807007 
	C277.326813,411.712372 268.659546,422.708923 263.524719,436.379364 
	C259.021912,448.367126 258.554993,461.059174 259.166840,473.737762 
	C259.240845,475.270813 260.340454,477.094330 261.522125,478.172089 
	C265.505157,481.805145 269.739807,485.162354 274.491119,489.137909 
	C272.893890,489.594055 272.178223,489.895233 271.435547,489.994415 
	C267.458557,490.525604 261.768341,489.621735 259.943878,491.870178 
	C257.862671,494.435028 259.342072,499.801422 259.053467,503.934906 
	C258.801666,507.541840 260.101105,509.119812 263.873016,509.005676 
	C270.198334,508.814240 276.538483,508.798645 282.862579,509.006775 
	C286.241913,509.118011 287.077911,507.790558 287.048431,504.612579 
	C286.913940,490.118744 286.803528,475.618896 287.104736,461.129944 
	C287.206818,456.220642 287.772980,451.051819 289.457062,446.492889 
	C295.512939,430.099365 312.551422,419.104218 331.296936,421.732635 
	C347.322632,423.979645 363.495087,440.471375 363.150177,457.805328 
	C362.795624,475.625549 363.070709,493.458282 363.062866,511.285522 
	C363.060059,517.651978 362.746704,517.966003 356.211060,517.969666 
	C336.050964,517.980896 315.890625,518.029846 295.731079,517.927429 
	C292.392242,517.910461 290.304077,518.935181 288.415070,521.866638 
	C279.632385,535.496460 273.995453,549.968262 272.776398,566.407654 
	C271.621002,581.988342 272.897217,596.795227 280.328308,610.753845 
	C281.393524,612.754822 282.218781,614.883667 283.155121,616.953308 
	C283.701569,616.858154 284.248047,616.763000 284.794495,616.667847 
	C285.181854,614.841003 285.661804,613.027954 285.937866,611.184448 
	C286.574371,606.933716 286.821136,602.604004 287.742554,598.420105 
	C290.832977,584.387329 297.383484,572.298889 306.829803,561.278259 
	C322.340851,543.182190 342.397644,533.531555 364.981262,529.311523 
	C384.163513,525.727051 403.369141,527.506104 421.544128,535.728333 
	C422.587402,536.200256 424.477753,536.491516 425.034088,535.932129 
	C425.776215,535.185852 426.011841,533.413818 425.712372,532.281433 
	C425.306885,530.748413 424.332153,529.294739 423.350342,527.997070 
	C417.701355,520.531189 410.781860,515.875977 400.822266,517.945923 
	C399.385590,518.244507 397.814728,517.832214 396.335724,518.004456 
	C392.071198,518.500977 390.880157,516.531250 390.949432,512.487366 
	C391.149231,500.827911 391.022858,489.162872 391.024536,476.500000 
M387.400635,670.480225 
	C385.902527,686.753479 380.011902,701.607727 371.377411,716.511719 
	C381.801392,716.511719 390.963837,715.926331 400.015686,716.675964 
	C409.107635,717.428894 416.002899,714.912476 421.779205,707.762268 
	C424.230164,704.728333 425.766724,702.106079 425.734680,698.119324 
	C425.565887,677.124817 425.708221,656.127808 425.565735,635.132874 
	C425.549591,632.757019 424.870392,630.148071 423.742645,628.054382 
	C413.474854,608.991699 397.962494,595.657410 378.203094,587.144226 
	C367.412720,582.495178 356.181702,580.199524 344.285217,581.056946 
	C344.404907,581.631958 344.385040,581.846069 344.471771,581.906128 
	C345.564819,582.662659 346.658234,583.420776 347.780182,584.133362 
	C359.211060,591.393005 368.602661,600.621765 375.517059,612.352478 
	C385.975677,630.096069 389.233795,649.296753 387.400635,670.480225 
M297.944092,653.152649 
	C300.597351,653.152649 303.250610,653.152649 305.903839,653.152649 
	C282.814941,638.474060 268.549866,618.395874 264.077454,591.889160 
	C259.671234,565.774658 264.956238,541.295410 279.291656,517.878052 
	C268.854523,517.878052 259.369446,518.458618 249.990784,517.708679 
	C241.253952,517.010132 234.744080,519.398071 229.181946,526.287659 
	C226.603027,529.481995 225.077164,532.210876 225.114258,536.364441 
	C225.298859,557.026672 225.154343,577.691772 225.265121,598.355042 
	C225.278015,600.762634 225.562073,603.503784 226.716766,605.519531 
	C242.372879,632.850037 265.447052,649.329712 297.944092,653.152649 
M927.372009,671.496643 
	C927.372009,664.559082 927.372009,657.621521 927.372009,650.683899 
	C927.912537,650.636719 928.453064,650.589478 928.993591,650.542236 
	C933.083618,657.375305 937.537109,664.021912 941.164124,671.092468 
	C944.998108,678.566467 949.560120,677.594788 952.714722,671.278442 
	C955.906799,664.887146 959.983582,658.939697 963.615906,652.764343 
	C964.172668,651.817932 964.422852,650.691223 964.814819,649.647888 
	C965.469299,650.080688 966.123718,650.513428 966.778198,650.946228 
	C966.778198,663.334229 966.778198,675.722229 966.778198,688.078491 
	C973.359558,688.078491 979.279419,688.078491 985.351074,688.078491 
	C985.351074,662.827393 985.351074,637.931213 985.351074,613.084717 
	C968.532837,610.531067 967.237610,611.121460 958.871826,624.956055 
	C958.354614,625.811462 957.825134,626.659607 957.310364,627.516479 
	C954.009949,633.009644 950.712036,638.504395 947.044312,644.613342 
	C945.614624,642.409851 944.693909,641.074707 943.857849,639.688477 
	C939.039368,631.699524 934.294373,623.665405 929.381897,615.734985 
	C928.588013,614.453308 927.126465,612.780457 925.894592,612.712219 
	C920.119507,612.392212 914.316895,612.570068 908.335266,612.570068 
	C908.335266,638.019104 908.335266,662.933105 908.335266,688.135315 
	C914.681213,688.135315 920.743713,688.135315 927.373352,688.135315 
	C927.373352,682.731262 927.373352,677.612427 927.372009,671.496643 
M228.914719,707.433289 
	C231.172028,709.653259 233.222321,712.158142 235.755371,713.998657 
	C237.614441,715.349426 240.103638,716.577942 242.316528,716.585754 
	C279.472809,716.717834 316.630157,716.562683 353.786072,716.736877 
	C358.315338,716.758118 360.800293,714.967224 363.033234,711.446960 
	C370.537659,699.616028 375.580566,686.909851 377.633423,673.010559 
	C380.261505,655.216736 377.900116,638.177185 370.122833,621.948303 
	C369.139709,619.896851 367.570709,618.126160 366.273163,616.225464 
	C364.123932,651.551453 347.557587,677.101013 317.496063,693.794312 
	C287.730255,710.323364 256.896667,710.085571 225.744736,697.178467 
	C224.572632,701.421509 224.876587,704.655945 228.914719,707.433289 
M289.838684,694.148254 
	C317.039368,688.131531 340.926941,667.422729 346.183319,651.842407 
	C298.456116,675.161499 259.455750,660.565918 225.245850,622.859192 
	C225.245850,643.623718 225.173859,663.420105 225.399948,683.213135 
	C225.415848,684.605713 227.364502,686.480896 228.867157,687.275208 
	C247.984024,697.380615 268.158600,698.975220 289.838684,694.148254 
M328.121735,554.586731 
	C318.505920,562.337280 309.245636,570.385254 303.648651,582.951782 
	C351.974213,559.061890 390.547791,573.543884 424.706909,610.605164 
	C425.192780,607.843567 425.794067,605.990784 425.802277,604.135315 
	C425.877319,587.147583 425.761200,570.158508 425.922913,553.171997 
	C425.956818,549.614563 424.497406,547.811707 421.514191,546.227112 
	C410.087738,540.157654 397.719604,537.619080 385.046844,537.246277 
	C364.515930,536.642212 345.748169,542.708130 328.121735,554.586731 
M865.263672,611.555054 
	C861.285339,611.767639 857.190674,611.445862 853.348145,612.282288 
	C833.193359,616.669556 820.107971,635.247986 822.513672,655.630005 
	C824.884277,675.714050 841.727661,690.471924 862.236938,690.434814 
	C883.247375,690.396790 900.478088,674.259399 901.528748,653.636047 
	C902.653381,631.560791 887.683289,613.743896 865.263672,611.555054 
M566.726135,619.947388 
	C566.726135,617.663086 566.726135,615.378845 566.726135,612.922546 
	C560.069763,612.922546 553.863953,612.922546 547.806152,612.922546 
	C547.806152,638.219788 547.806152,663.122375 547.806152,688.038330 
	C554.269470,688.038330 560.324768,688.038330 566.901245,688.038330 
	C566.901245,678.033630 566.901245,668.430908 566.901245,658.721802 
	C576.991821,658.721802 586.542419,658.721802 596.570557,658.721802 
	C596.570557,668.682068 596.570557,678.271179 596.570557,688.105225 
	C603.102966,688.105225 609.149536,688.105225 615.369385,688.105225 
	C615.369385,662.847046 615.369385,637.943481 615.369385,612.856506 
	C609.008972,612.856506 602.946655,612.856506 596.226685,612.856506 
	C596.226685,622.241943 596.226685,631.288208 596.226685,640.471985 
	C587.236084,640.471985 578.904358,640.361084 570.578186,640.528198 
	C567.376404,640.592407 566.594543,639.241028 566.683716,636.345398 
	C566.842712,631.184631 566.727112,626.015381 566.726135,619.947388 
M528.745300,620.751770 
	C524.695740,615.993347 519.535950,612.445618 513.431213,612.165039 
	C501.179321,611.601929 488.883392,611.997681 476.438782,611.997681 
	C476.438782,637.478149 476.438782,662.685730 476.438782,688.101196 
	C482.802307,688.101196 488.847626,688.101196 495.342651,688.101196 
	C495.342651,680.186707 495.342651,672.595276 495.342651,664.844788 
	C500.448853,663.720215 504.228027,663.705078 506.646637,669.219849 
	C509.107544,674.831177 512.501282,680.042786 515.630615,685.344360 
	C516.331360,686.531555 517.598816,688.183838 518.661926,688.226929 
	C525.233276,688.493225 531.820862,688.360718 539.342407,688.360718 
	C533.848816,678.420532 528.833130,669.345154 523.893066,660.406494 
	C536.979980,645.828430 538.447083,634.472961 528.745300,620.751770 
M1184.365601,672.184631 
	C1194.035034,686.381287 1207.571289,692.506348 1224.399902,690.021973 
	C1237.051636,688.154297 1246.603516,681.123596 1253.071045,669.259705 
	C1248.702759,666.862732 1244.678711,664.906738 1240.928589,662.520020 
	C1237.724121,660.480347 1235.863525,660.464722 1233.288330,663.918152 
	C1227.563477,671.595154 1217.523682,673.491150 1209.061646,669.282227 
	C1200.369019,664.958618 1195.768311,655.057373 1198.153931,645.807556 
	C1200.436279,636.958557 1208.934448,630.483215 1218.040894,630.468018 
	C1226.132568,630.454468 1231.687012,634.831482 1236.295654,641.187927 
	C1241.953369,638.132202 1247.284912,635.252625 1252.558838,632.404114 
	C1244.171387,613.684631 1219.053589,605.919800 1199.898438,615.553467 
	C1179.252319,625.937012 1172.238647,650.643188 1184.365601,672.184631 
M806.238647,617.375488 
	C790.117493,608.112915 770.683350,609.821411 758.023254,621.614197 
	C745.046387,633.702087 741.518372,652.399109 749.208740,668.327332 
	C756.799683,684.049622 773.953308,693.064880 791.474365,690.061523 
	C804.118591,687.894165 813.547546,680.949646 820.202515,669.344727 
	C815.694031,666.875610 811.638428,664.947571 807.906189,662.521973 
	C804.661621,660.413391 802.874573,660.598389 800.277954,663.915466 
	C793.028503,673.176514 780.194397,673.947021 771.517151,666.190491 
	C762.759766,658.362305 762.233826,645.139038 770.346558,636.761108 
	C778.595886,628.242126 791.604858,628.318909 799.707336,636.945129 
	C800.927429,638.244080 802.098389,639.589294 803.449707,641.088013 
	C809.013123,638.087036 814.335632,635.216003 821.170715,631.529053 
	C815.785217,626.356750 811.312683,622.061218 806.238647,617.375488 
M1156.498047,670.583191 
	C1152.569946,670.583191 1148.641846,670.583191 1144.505859,670.583191 
	C1144.505859,666.207642 1144.505859,662.625916 1144.505859,658.330688 
	C1153.278931,658.330688 1161.834106,658.330688 1170.475586,658.330688 
	C1170.475586,652.056213 1170.475586,646.500854 1170.475586,640.487915 
	C1164.497437,640.487915 1158.863892,640.482056 1153.230469,640.489197 
	C1143.375122,640.501648 1143.374023,640.504883 1144.490845,630.575439 
	C1144.506226,630.439392 1144.663574,630.319214 1145.281860,629.452271 
	C1154.266968,629.452271 1163.801636,629.452271 1173.249756,629.452271 
	C1173.249756,623.146790 1173.249756,617.588867 1173.249756,612.083252 
	C1156.953003,612.083252 1141.068604,612.083252 1125.159424,612.083252 
	C1125.159424,637.731934 1125.159424,662.982056 1125.159424,688.459351 
	C1141.510864,688.459351 1157.563354,688.459351 1173.764893,688.459351 
	C1173.764893,682.398560 1173.764893,676.670654 1173.764893,670.582397 
	C1168.112671,670.582397 1162.804199,670.582397 1156.498047,670.583191 
M1069.818115,665.548462 
	C1067.958130,666.656799 1066.201660,668.021545 1064.217529,668.822144 
	C1059.563965,670.699829 1060.052246,673.253662 1062.374023,676.867432 
	C1070.074219,688.852661 1087.397949,694.038513 1102.516968,688.647644 
	C1113.438232,684.753479 1118.684448,677.028931 1118.373657,665.421143 
	C1118.115723,655.786560 1112.723267,649.594971 1104.585571,645.650513 
	C1099.214355,643.046936 1093.415527,641.339172 1087.891357,639.031006 
	C1085.177124,637.896790 1081.675293,636.659302 1082.695312,632.822327 
	C1083.733643,628.916626 1087.534790,628.881531 1090.588745,629.570312 
	C1093.006592,630.115601 1095.261475,631.773865 1097.342041,633.279175 
	C1098.597290,634.187439 1099.380737,635.747925 1100.523560,637.202881 
	C1105.928833,633.944153 1111.019653,630.875061 1116.213989,627.743530 
	C1115.856934,626.767761 1115.710815,626.131287 1115.409546,625.579590 
	C1107.937012,611.900391 1093.901855,607.708984 1079.349609,611.829285 
	C1066.633423,615.429504 1060.445923,627.401672 1063.936646,640.152222 
	C1066.009521,647.723755 1071.454712,652.184875 1078.358643,654.999329 
	C1083.902344,657.259338 1089.729492,658.849182 1095.183105,661.290100 
	C1096.901733,662.059326 1098.947632,664.726868 1098.795898,666.332092 
	C1098.632812,668.057861 1096.351685,670.229004 1094.489502,671.027954 
	C1088.856445,673.444763 1081.776978,670.952515 1078.115112,665.806458 
	C1077.289429,664.645996 1076.487793,663.468323 1075.594482,662.182678 
	C1073.578735,663.341003 1071.999756,664.248352 1069.818115,665.548462 
M1053.558472,647.206665 
	C1059.334351,627.843079 1047.392822,611.716797 1027.259033,611.692993 
	C1022.097351,611.686890 1016.935669,611.685669 1011.773987,611.683838 
	C1007.691650,611.682434 1003.609253,611.683594 999.422485,611.683594 
	C999.422485,637.599060 999.422485,662.682251 999.422485,688.099731 
	C1005.732788,688.099731 1011.783813,688.099731 1018.363159,688.099731 
	C1018.363159,682.674683 1018.322266,677.554932 1018.371948,672.436035 
	C1018.463928,662.963135 1017.182068,664.260620 1026.619019,664.346863 
	C1039.048828,664.460571 1048.076782,659.367065 1053.558472,647.206665 
M674.526306,662.499634 
	C674.526306,671.067871 674.526306,679.636108 674.526306,688.138550 
	C681.346985,688.138550 687.277527,688.138550 693.851624,688.138550 
	C693.851624,668.510315 693.851624,649.173706 693.851624,629.304810 
	C700.564270,629.304810 706.629272,629.304810 712.621277,629.304810 
	C712.621277,623.188110 712.621277,617.625183 712.621277,612.013062 
	C693.386841,612.013062 674.496643,612.013062 655.597778,612.013062 
	C655.597778,617.922607 655.597778,623.495361 655.597778,629.615051 
	C661.984619,629.615051 668.049438,629.615051 674.526367,629.615051 
	C674.526367,640.609009 674.526367,651.054260 674.526306,662.499634 
M628.765259,629.503479 
	C628.765259,649.050232 628.765259,668.596924 628.765259,687.992493 
	C635.644348,687.992493 641.691040,687.992493 647.715271,687.992493 
	C647.715271,662.695618 647.715271,637.821533 647.715271,612.851013 
	C641.324463,612.851013 635.248901,612.851013 628.765320,612.851013 
	C628.765320,618.270752 628.765320,623.388550 628.765259,629.503479 
z"/>
<path fill="#5D0102" opacity="1.000000" stroke="none" 
	d="
M391.024567,477.000000 
	C391.022858,489.162872 391.149231,500.827911 390.949432,512.487366 
	C390.880157,516.531250 392.071198,518.500977 396.335724,518.004456 
	C397.814728,517.832214 399.385590,518.244507 400.822266,517.945923 
	C410.781860,515.875977 417.701355,520.531189 423.350342,527.997070 
	C424.332153,529.294739 425.306885,530.748413 425.712372,532.281433 
	C426.011841,533.413818 425.776215,535.185852 425.034088,535.932129 
	C424.477753,536.491516 422.587402,536.200256 421.544128,535.728333 
	C403.369141,527.506104 384.163513,525.727051 364.981262,529.311523 
	C342.397644,533.531555 322.340851,543.182190 306.829803,561.278259 
	C297.383484,572.298889 290.832977,584.387329 287.742554,598.420105 
	C286.821136,602.604004 286.574371,606.933716 285.937866,611.184448 
	C285.661804,613.027954 285.181854,614.841003 284.794495,616.667847 
	C284.248047,616.763000 283.701569,616.858154 283.155121,616.953308 
	C282.218781,614.883667 281.393524,612.754822 280.328308,610.753845 
	C272.897217,596.795227 271.621002,581.988342 272.776398,566.407654 
	C273.995453,549.968262 279.632385,535.496460 288.415070,521.866638 
	C290.304077,518.935181 292.392242,517.910461 295.731079,517.927429 
	C315.890625,518.029846 336.050964,517.980896 356.211060,517.969666 
	C362.746704,517.966003 363.060059,517.651978 363.062866,511.285522 
	C363.070709,493.458282 362.795624,475.625549 363.150177,457.805328 
	C363.495087,440.471375 347.322632,423.979645 331.296936,421.732635 
	C312.551422,419.104218 295.512939,430.099365 289.457062,446.492889 
	C287.772980,451.051819 287.206818,456.220642 287.104736,461.129944 
	C286.803528,475.618896 286.913940,490.118744 287.048431,504.612579 
	C287.077911,507.790558 286.241913,509.118011 282.862579,509.006775 
	C276.538483,508.798645 270.198334,508.814240 263.873016,509.005676 
	C260.101105,509.119812 258.801666,507.541840 259.053467,503.934906 
	C259.342072,499.801422 257.862671,494.435028 259.943878,491.870178 
	C261.768341,489.621735 267.458557,490.525604 271.435547,489.994415 
	C272.178223,489.895233 272.893890,489.594055 274.491119,489.137909 
	C269.739807,485.162354 265.505157,481.805145 261.522125,478.172089 
	C260.340454,477.094330 259.240845,475.270813 259.166840,473.737762 
	C258.554993,461.059174 259.021912,448.367126 263.524719,436.379364 
	C268.659546,422.708923 277.326813,411.712372 289.934418,403.807007 
	C300.475861,397.197266 311.905914,393.255157 324.115509,393.279602 
	C351.735352,393.334900 377.439270,409.412781 387.486450,437.534363 
	C392.093384,450.428955 390.512146,463.462006 391.024567,477.000000 
z"/>
<path fill="#DE2B39" opacity="1.000000" stroke="none" 
	d="
M387.421387,670.025757 
	C389.233795,649.296753 385.975677,630.096069 375.517059,612.352478 
	C368.602661,600.621765 359.211060,591.393005 347.780182,584.133362 
	C346.658234,583.420776 345.564819,582.662659 344.471771,581.906128 
	C344.385040,581.846069 344.404907,581.631958 344.285217,581.056946 
	C356.181702,580.199524 367.412720,582.495178 378.203094,587.144226 
	C397.962494,595.657410 413.474854,608.991699 423.742645,628.054382 
	C424.870392,630.148071 425.549591,632.757019 425.565735,635.132874 
	C425.708221,656.127808 425.565887,677.124817 425.734680,698.119324 
	C425.766724,702.106079 424.230164,704.728333 421.779205,707.762268 
	C416.002899,714.912476 409.107635,717.428894 400.015686,716.675964 
	C390.963837,715.926331 381.801392,716.511719 371.377411,716.511719 
	C380.011902,701.607727 385.902527,686.753479 387.421387,670.025757 
z"/>
<path fill="#E45F69" opacity="1.000000" stroke="none" 
	d="
M297.519623,653.097656 
	C265.447052,649.329712 242.372879,632.850037 226.716766,605.519531 
	C225.562073,603.503784 225.278015,600.762634 225.265121,598.355042 
	C225.154343,577.691772 225.298859,557.026672 225.114258,536.364441 
	C225.077164,532.210876 226.603027,529.481995 229.181946,526.287659 
	C234.744080,519.398071 241.253952,517.010132 249.990784,517.708679 
	C259.369446,518.458618 268.854523,517.878052 279.291656,517.878052 
	C264.956238,541.295410 259.671234,565.774658 264.077454,591.889160 
	C268.549866,618.395874 282.814941,638.474060 305.903839,653.152649 
	C303.250610,653.152649 300.597351,653.152649 297.519623,653.097656 
z"/>
<path fill="#F7F7F7" opacity="1.000000" stroke="none" 
	d="
M927.372681,671.995117 
	C927.373352,677.612427 927.373352,682.731262 927.373352,688.135315 
	C920.743713,688.135315 914.681213,688.135315 908.335266,688.135315 
	C908.335266,662.933105 908.335266,638.019104 908.335266,612.570068 
	C914.316895,612.570068 920.119507,612.392212 925.894592,612.712219 
	C927.126465,612.780457 928.588013,614.453308 929.381897,615.734985 
	C934.294373,623.665405 939.039368,631.699524 943.857849,639.688477 
	C944.693909,641.074707 945.614624,642.409851 947.044312,644.613342 
	C950.712036,638.504395 954.009949,633.009644 957.310364,627.516479 
	C957.825134,626.659607 958.354614,625.811462 958.871826,624.956055 
	C967.237610,611.121460 968.532837,610.531067 985.351074,613.084717 
	C985.351074,637.931213 985.351074,662.827393 985.351074,688.078491 
	C979.279419,688.078491 973.359558,688.078491 966.778198,688.078491 
	C966.778198,675.722229 966.778198,663.334229 966.778198,650.946228 
	C966.123718,650.513428 965.469299,650.080688 964.814819,649.647888 
	C964.422852,650.691223 964.172668,651.817932 963.615906,652.764343 
	C959.983582,658.939697 955.906799,664.887146 952.714722,671.278442 
	C949.560120,677.594788 944.998108,678.566467 941.164124,671.092468 
	C937.537109,664.021912 933.083618,657.375305 928.993591,650.542236 
	C928.453064,650.589478 927.912537,650.636719 927.372009,650.683899 
	C927.372009,657.621521 927.372009,664.559082 927.372681,671.995117 
z"/>
<path fill="#AE1825" opacity="1.000000" stroke="none" 
	d="
M228.624664,707.212158 
	C224.876587,704.655945 224.572632,701.421509 225.744736,697.178467 
	C256.896667,710.085571 287.730255,710.323364 317.496063,693.794312 
	C347.557587,677.101013 364.123932,651.551453 366.273163,616.225464 
	C367.570709,618.126160 369.139709,619.896851 370.122833,621.948303 
	C377.900116,638.177185 380.261505,655.216736 377.633423,673.010559 
	C375.580566,686.909851 370.537659,699.616028 363.033234,711.446960 
	C360.800293,714.967224 358.315338,716.758118 353.786072,716.736877 
	C316.630157,716.562683 279.472809,716.717834 242.316528,716.585754 
	C240.103638,716.577942 237.614441,715.349426 235.755371,713.998657 
	C233.222321,712.158142 231.172028,709.653259 228.624664,707.212158 
z"/>
<path fill="#F3E9F4" opacity="1.000000" stroke="none" 
	d="
M289.438965,694.263306 
	C268.158600,698.975220 247.984024,697.380615 228.867157,687.275208 
	C227.364502,686.480896 225.415848,684.605713 225.399948,683.213135 
	C225.173859,663.420105 225.245850,643.623718 225.245850,622.859192 
	C259.455750,660.565918 298.456116,675.161499 346.183319,651.842407 
	C340.926941,667.422729 317.039368,688.131531 289.438965,694.263306 
z"/>
<path fill="#780C1C" opacity="1.000000" stroke="none" 
	d="
M328.429413,554.395508 
	C345.748169,542.708130 364.515930,536.642212 385.046844,537.246277 
	C397.719604,537.619080 410.087738,540.157654 421.514191,546.227112 
	C424.497406,547.811707 425.956818,549.614563 425.922913,553.171997 
	C425.761200,570.158508 425.877319,587.147583 425.802277,604.135315 
	C425.794067,605.990784 425.192780,607.843567 424.706909,610.605164 
	C390.547791,573.543884 351.974213,559.061890 303.648651,582.951782 
	C309.245636,570.385254 318.505920,562.337280 328.429413,554.395508 
z"/>
<path fill="#F6F6F6" opacity="1.000000" stroke="none" 
	d="
M865.721802,611.560120 
	C887.683289,613.743896 902.653381,631.560791 901.528748,653.636047 
	C900.478088,674.259399 883.247375,690.396790 862.236938,690.434814 
	C841.727661,690.471924 824.884277,675.714050 822.513672,655.630005 
	C820.107971,635.247986 833.193359,616.669556 853.348145,612.282288 
	C857.190674,611.445862 861.285339,611.767639 865.721802,611.560120 
M852.015503,668.766357 
	C852.760681,669.135254 853.484436,669.557922 854.254333,669.864868 
	C862.428101,673.124268 870.693909,671.306458 876.628906,664.964294 
	C882.357849,658.842529 883.768127,649.944702 880.234497,642.215332 
	C876.686707,634.454773 869.148010,629.993347 860.484924,630.527466 
	C852.212952,631.037476 844.812988,637.102051 842.335449,645.401733 
	C839.826355,653.807190 843.122498,662.193359 852.015503,668.766357 
z"/>
<path fill="#F4F4F4" opacity="1.000000" stroke="none" 
	d="
M566.726196,620.398560 
	C566.727112,626.015381 566.842712,631.184631 566.683716,636.345398 
	C566.594543,639.241028 567.376404,640.592407 570.578186,640.528198 
	C578.904358,640.361084 587.236084,640.471985 596.226685,640.471985 
	C596.226685,631.288208 596.226685,622.241943 596.226685,612.856506 
	C602.946655,612.856506 609.008972,612.856506 615.369385,612.856506 
	C615.369385,637.943481 615.369385,662.847046 615.369385,688.105225 
	C609.149536,688.105225 603.102966,688.105225 596.570557,688.105225 
	C596.570557,678.271179 596.570557,668.682068 596.570557,658.721802 
	C586.542419,658.721802 576.991821,658.721802 566.901245,658.721802 
	C566.901245,668.430908 566.901245,678.033630 566.901245,688.038330 
	C560.324768,688.038330 554.269470,688.038330 547.806152,688.038330 
	C547.806152,663.122375 547.806152,638.219788 547.806152,612.922546 
	C553.863953,612.922546 560.069763,612.922546 566.726135,612.922546 
	C566.726135,615.378845 566.726135,617.663086 566.726196,620.398560 
z"/>
<path fill="#F8F8F8" opacity="1.000000" stroke="none" 
	d="
M528.973633,621.023071 
	C538.447083,634.472961 536.979980,645.828430 523.893066,660.406494 
	C528.833130,669.345154 533.848816,678.420532 539.342407,688.360718 
	C531.820862,688.360718 525.233276,688.493225 518.661926,688.226929 
	C517.598816,688.183838 516.331360,686.531555 515.630615,685.344360 
	C512.501282,680.042786 509.107544,674.831177 506.646637,669.219849 
	C504.228027,663.705078 500.448853,663.720215 495.342651,664.844788 
	C495.342651,672.595276 495.342651,680.186707 495.342651,688.101196 
	C488.847626,688.101196 482.802307,688.101196 476.438782,688.101196 
	C476.438782,662.685730 476.438782,637.478149 476.438782,611.997681 
	C488.883392,611.997681 501.179321,611.601929 513.431213,612.165039 
	C519.535950,612.445618 524.695740,615.993347 528.973633,621.023071 
M511.798004,630.395203 
	C506.435608,630.004395 501.073212,629.613586 495.633606,629.217163 
	C495.633606,635.465149 495.633606,640.795105 495.633606,646.458618 
	C499.974243,646.458618 503.924957,646.612000 507.858337,646.416748 
	C512.017273,646.210205 515.209290,644.267700 516.354858,640.047180 
	C517.435303,636.066956 516.009033,632.914429 511.798004,630.395203 
z"/>
<path fill="#F6F6F6" opacity="1.000000" stroke="none" 
	d="
M1184.181152,671.876709 
	C1172.238647,650.643188 1179.252319,625.937012 1199.898438,615.553467 
	C1219.053589,605.919800 1244.171387,613.684631 1252.558838,632.404114 
	C1247.284912,635.252625 1241.953369,638.132202 1236.295654,641.187927 
	C1231.687012,634.831482 1226.132568,630.454468 1218.040894,630.468018 
	C1208.934448,630.483215 1200.436279,636.958557 1198.153931,645.807556 
	C1195.768311,655.057373 1200.369019,664.958618 1209.061646,669.282227 
	C1217.523682,673.491150 1227.563477,671.595154 1233.288330,663.918152 
	C1235.863525,660.464722 1237.724121,660.480347 1240.928589,662.520020 
	C1244.678711,664.906738 1248.702759,666.862732 1253.071045,669.259705 
	C1246.603516,681.123596 1237.051636,688.154297 1224.399902,690.021973 
	C1207.571289,692.506348 1194.035034,686.381287 1184.181152,671.876709 
z"/>
<path fill="#F6F6F6" opacity="1.000000" stroke="none" 
	d="
M806.539368,617.570557 
	C811.312683,622.061218 815.785217,626.356750 821.170715,631.529053 
	C814.335632,635.216003 809.013123,638.087036 803.449707,641.088013 
	C802.098389,639.589294 800.927429,638.244080 799.707336,636.945129 
	C791.604858,628.318909 778.595886,628.242126 770.346558,636.761108 
	C762.233826,645.139038 762.759766,658.362305 771.517151,666.190491 
	C780.194397,673.947021 793.028503,673.176514 800.277954,663.915466 
	C802.874573,660.598389 804.661621,660.413391 807.906189,662.521973 
	C811.638428,664.947571 815.694031,666.875610 820.202515,669.344727 
	C813.547546,680.949646 804.118591,687.894165 791.474365,690.061523 
	C773.953308,693.064880 756.799683,684.049622 749.208740,668.327332 
	C741.518372,652.399109 745.046387,633.702087 758.023254,621.614197 
	C770.683350,609.821411 790.117493,608.112915 806.539368,617.570557 
z"/>
<path fill="#F7F7F7" opacity="1.000000" stroke="none" 
	d="
M1156.996826,670.582764 
	C1162.804199,670.582397 1168.112671,670.582397 1173.764893,670.582397 
	C1173.764893,676.670654 1173.764893,682.398560 1173.764893,688.459351 
	C1157.563354,688.459351 1141.510864,688.459351 1125.159424,688.459351 
	C1125.159424,662.982056 1125.159424,637.731934 1125.159424,612.083252 
	C1141.068604,612.083252 1156.953003,612.083252 1173.249756,612.083252 
	C1173.249756,617.588867 1173.249756,623.146790 1173.249756,629.452271 
	C1163.801636,629.452271 1154.266968,629.452271 1145.281860,629.452271 
	C1144.663574,630.319214 1144.506226,630.439392 1144.490845,630.575439 
	C1143.374023,640.504883 1143.375122,640.501648 1153.230469,640.489197 
	C1158.863892,640.482056 1164.497437,640.487915 1170.475586,640.487915 
	C1170.475586,646.500854 1170.475586,652.056213 1170.475586,658.330688 
	C1161.834106,658.330688 1153.278931,658.330688 1144.505859,658.330688 
	C1144.505859,662.625916 1144.505859,666.207642 1144.505859,670.583191 
	C1148.641846,670.583191 1152.569946,670.583191 1156.996826,670.582764 
z"/>
<path fill="#F7F7F7" opacity="1.000000" stroke="none" 
	d="
M1070.119507,665.352051 
	C1071.999756,664.248352 1073.578735,663.341003 1075.594482,662.182678 
	C1076.487793,663.468323 1077.289429,664.645996 1078.115112,665.806458 
	C1081.776978,670.952515 1088.856445,673.444763 1094.489502,671.027954 
	C1096.351685,670.229004 1098.632812,668.057861 1098.795898,666.332092 
	C1098.947632,664.726868 1096.901733,662.059326 1095.183105,661.290100 
	C1089.729492,658.849182 1083.902344,657.259338 1078.358643,654.999329 
	C1071.454712,652.184875 1066.009521,647.723755 1063.936646,640.152222 
	C1060.445923,627.401672 1066.633423,615.429504 1079.349609,611.829285 
	C1093.901855,607.708984 1107.937012,611.900391 1115.409546,625.579590 
	C1115.710815,626.131287 1115.856934,626.767761 1116.213989,627.743530 
	C1111.019653,630.875061 1105.928833,633.944153 1100.523560,637.202881 
	C1099.380737,635.747925 1098.597290,634.187439 1097.342041,633.279175 
	C1095.261475,631.773865 1093.006592,630.115601 1090.588745,629.570312 
	C1087.534790,628.881531 1083.733643,628.916626 1082.695312,632.822327 
	C1081.675293,636.659302 1085.177124,637.896790 1087.891357,639.031006 
	C1093.415527,641.339172 1099.214355,643.046936 1104.585571,645.650513 
	C1112.723267,649.594971 1118.115723,655.786560 1118.373657,665.421143 
	C1118.684448,677.028931 1113.438232,684.753479 1102.516968,688.647644 
	C1087.397949,694.038513 1070.074219,688.852661 1062.374023,676.867432 
	C1060.052246,673.253662 1059.563965,670.699829 1064.217529,668.822144 
	C1066.201660,668.021545 1067.958130,666.656799 1070.119507,665.352051 
z"/>
<path fill="#F7F7F7" opacity="1.000000" stroke="none" 
	d="
M1053.418701,647.558716 
	C1048.076782,659.367065 1039.048828,664.460571 1026.619019,664.346863 
	C1017.182068,664.260620 1018.463928,662.963135 1018.371948,672.436035 
	C1018.322266,677.554932 1018.363159,682.674683 1018.363159,688.099731 
	C1011.783813,688.099731 1005.732788,688.099731 999.422485,688.099731 
	C999.422485,662.682251 999.422485,637.599060 999.422485,611.683594 
	C1003.609253,611.683594 1007.691650,611.682434 1011.773987,611.683838 
	C1016.935669,611.685669 1022.097351,611.686890 1027.259033,611.692993 
	C1047.392822,611.716797 1059.334351,627.843079 1053.418701,647.558716 
M1020.102173,629.544800 
	C1019.565430,629.868042 1018.567383,630.182556 1018.561096,630.515869 
	C1018.462524,635.721130 1018.491943,640.928833 1018.491943,646.415588 
	C1022.104126,646.415588 1025.083740,646.642761 1028.015991,646.366638 
	C1033.503784,645.849792 1036.631836,642.636536 1036.659058,637.908508 
	C1036.685913,633.211121 1033.472534,630.082642 1027.933350,629.612244 
	C1025.627441,629.416382 1023.295837,629.524109 1020.102173,629.544800 
z"/>
<path fill="#F7F7F7" opacity="1.000000" stroke="none" 
	d="
M674.526367,661.999634 
	C674.526367,651.054260 674.526367,640.609009 674.526367,629.615051 
	C668.049438,629.615051 661.984619,629.615051 655.597778,629.615051 
	C655.597778,623.495361 655.597778,617.922607 655.597778,612.013062 
	C674.496643,612.013062 693.386841,612.013062 712.621277,612.013062 
	C712.621277,617.625183 712.621277,623.188110 712.621277,629.304810 
	C706.629272,629.304810 700.564270,629.304810 693.851624,629.304810 
	C693.851624,649.173706 693.851624,668.510315 693.851624,688.138550 
	C687.277527,688.138550 681.346985,688.138550 674.526306,688.138550 
	C674.526306,679.636108 674.526306,671.067871 674.526367,661.999634 
z"/>
<path fill="#FAFAFA" opacity="1.000000" stroke="none" 
	d="
M628.765259,629.004883 
	C628.765320,623.388550 628.765320,618.270752 628.765320,612.851013 
	C635.248901,612.851013 641.324463,612.851013 647.715271,612.851013 
	C647.715271,637.821533 647.715271,662.695618 647.715271,687.992493 
	C641.691040,687.992493 635.644348,687.992493 628.765259,687.992493 
	C628.765259,668.596924 628.765259,649.050232 628.765259,629.004883 
z"/>
<path fill="#060606" opacity="1.000000" stroke="none" 
	d="
M851.690674,668.571777 
	C843.122498,662.193359 839.826355,653.807190 842.335449,645.401733 
	C844.812988,637.102051 852.212952,631.037476 860.484924,630.527466 
	C869.148010,629.993347 876.686707,634.454773 880.234497,642.215332 
	C883.768127,649.944702 882.357849,658.842529 876.628906,664.964294 
	C870.693909,671.306458 862.428101,673.124268 854.254333,669.864868 
	C853.484436,669.557922 852.760681,669.135254 851.690674,668.571777 
z"/>
<path fill="#101010" opacity="1.000000" stroke="none" 
	d="
M512.154114,630.556396 
	C516.009033,632.914429 517.435303,636.066956 516.354858,640.047180 
	C515.209290,644.267700 512.017273,646.210205 507.858337,646.416748 
	C503.924957,646.612000 499.974243,646.458618 495.633606,646.458618 
	C495.633606,640.795105 495.633606,635.465149 495.633606,629.217163 
	C501.073212,629.613586 506.435608,630.004395 512.154114,630.556396 
z"/>
<path fill="#101010" opacity="0.000000" stroke="none" 
	d="
M1020.539062,629.519287 
	C1023.295837,629.524109 1025.627441,629.416382 1027.933350,629.612244 
	C1033.472534,630.082642 1036.685913,633.211121 1036.659058,637.908508 
	C1036.631836,642.636536 1033.503784,645.849792 1028.015991,646.366638 
	C1025.083740,646.642761 1022.104126,646.415588 1018.491943,646.415588 
	C1018.491943,640.928833 1018.462524,635.721130 1018.561096,630.515869 
	C1018.567383,630.182556 1019.565430,629.868042 1020.539062,629.519287 
z"/>
</svg>