<svg width="38" height="38" viewBox="0 0 38 38" fill="none" xmlns="http://www.w3.org/2000/svg">
<path fill-rule="evenodd" clip-rule="evenodd" d="M13.0049 20.5833H9.5C6.87665 20.5833 4.75 18.4567 4.75 15.8333C4.75 13.21 6.87665 11.0833 9.5 11.0833H9.60688C10.3351 11.0833 10.6992 11.0833 10.9492 10.9191C11.1991 10.7549 11.3763 10.3453 11.7307 9.52621C12.9463 6.7162 15.7435 4.75 19 4.75C22.2565 4.75 25.0537 6.7162 26.2693 9.52621C26.6237 10.3453 26.8008 10.7549 27.0508 10.9191C27.3008 11.0833 27.6649 11.0833 28.3931 11.0833H29.25C31.4591 11.0833 33.25 12.8742 33.25 15.0833V16.5833C33.25 18.7925 31.4591 20.5833 29.25 20.5833H24.9951L20.4142 16.0025L19 14.5882L17.5858 16.0025L13.0049 20.5833Z" fill="#00F6FF"/>
<path d="M19 19L18.2929 18.2929L19 17.5858L19.7071 18.2929L19 19ZM20 33.25C20 33.8023 19.5523 34.25 19 34.25C18.4477 34.25 18 33.8023 18 33.25L20 33.25ZM11.9596 24.6262L18.2929 18.2929L19.7071 19.7071L13.3738 26.0404L11.9596 24.6262ZM19.7071 18.2929L26.0405 24.6262L24.6262 26.0404L18.2929 19.7071L19.7071 18.2929ZM20 19L20 33.25L18 33.25L18 19L20 19Z" fill="#00F6FF"/>
</svg>
